{
	"asset":{
		"generator":"Khronos glTF Blender I/O v5.0.21",
		"version":"2.0"
	},
	"extensionsUsed":[
		"KHR_materials_transmission",
		"KHR_materials_emissive_strength",
		"KHR_materials_ior"
	],
	"scene":0,
	"scenes":[
		{
			"name":"Scene",
			"nodes":[
				0,
				1,
				2
			]
		}
	],
	"nodes":[
		{
			"mesh":0,
			"name":"Icosphere",
			"scale":[
				1.9675378799438477,
				1.9675378799438477,
				1.9675378799438477
			]
		},
		{
			"mesh":1,
			"name":"Sphere",
			"scale":[
				1.5605125427246094,
				1.5605125427246094,
				1.5605125427246094
			]
		},
		{
			"mesh":2,
			"name":"Sphere.001",
			"scale":[
				1.725786566734314,
				1.725786566734314,
				1.725786566734314
			]
		}
	],
	"materials":[
		{
			"doubleSided":true,
			"emissiveFactor":[
				0,
				0.8338690996170044,
				1
			],
			"extensions":{
				"KHR_materials_emissive_strength":{
					"emissiveStrength":5
				}
			},
			"name":"Material.001",
			"pbrMetallicRoughness":{
				"baseColorFactor":[
					0,
					0.1780196577310562,
					0.8000074625015259,
					1
				],
				"metallicFactor":0,
				"roughnessFactor":0.5
			}
		},
		{
			"doubleSided":true,
			"name":"Material.003",
			"pbrMetallicRoughness":{
				"baseColorFactor":[
					0,
					0.8000074625015259,
					0.05894416198134422,
					1
				],
				"metallicFactor":0,
				"roughnessFactor":0.5
			}
		},
		{
			"doubleSided":true,
			"extensions":{
				"KHR_materials_transmission":{
					"transmissionFactor":0.38181817531585693
				},
				"KHR_materials_ior":{
					"ior":2.299999713897705
				}
			},
			"name":"Material.002",
			"pbrMetallicRoughness":{
				"baseColorFactor":[
					0,
					0.4690595269203186,
					0.8000074625015259,
					1
				],
				"metallicFactor":0,
				"roughnessFactor":0.5
			}
		}
	],
	"meshes":[
		{
			"name":"Icosphere",
			"primitives":[
				{
					"attributes":{
						"POSITION":0,
						"NORMAL":1,
						"TEXCOORD_0":2
					},
					"indices":3,
					"material":0
				}
			]
		},
		{
			"name":"Sphere.001",
			"primitives":[
				{
					"attributes":{
						"POSITION":4,
						"NORMAL":5,
						"TEXCOORD_0":6
					},
					"indices":7,
					"material":1
				}
			]
		},
		{
			"name":"Sphere.002",
			"primitives":[
				{
					"attributes":{
						"POSITION":8,
						"NORMAL":9,
						"TEXCOORD_0":10
					},
					"indices":11,
					"material":2
				}
			]
		}
	],
	"accessors":[
		{
			"bufferView":0,
			"componentType":5126,
			"count":748,
			"max":[
				0.9510578513145447,
				1,
				0.9999999403953552
			],
			"min":[
				-0.9510578513145447,
				-1,
				-0.9999999403953552
			],
			"type":"VEC3"
		},
		{
			"bufferView":1,
			"componentType":5126,
			"count":748,
			"type":"VEC3"
		},
		{
			"bufferView":2,
			"componentType":5126,
			"count":748,
			"type":"VEC2"
		},
		{
			"bufferView":3,
			"componentType":5123,
			"count":1440,
			"type":"SCALAR"
		},
		{
			"bufferView":4,
			"componentType":5126,
			"count":2392,
			"max":[
				1.081816554069519,
				1.0825341939926147,
				1.1482782363891602
			],
			"min":[
				-1.1326345205307007,
				-1.0803536176681519,
				-1.119166612625122
			],
			"type":"VEC3"
		},
		{
			"bufferView":5,
			"componentType":5126,
			"count":2392,
			"type":"VEC3"
		},
		{
			"bufferView":6,
			"componentType":5126,
			"count":2392,
			"type":"VEC2"
		},
		{
			"bufferView":7,
			"componentType":5123,
			"count":3492,
			"type":"SCALAR"
		},
		{
			"bufferView":8,
			"componentType":5126,
			"count":1984,
			"max":[
				0.9999997019767761,
				1,
				0.9999993443489075
			],
			"min":[
				-0.9999990463256836,
				-1,
				-1
			],
			"type":"VEC3"
		},
		{
			"bufferView":9,
			"componentType":5126,
			"count":1984,
			"type":"VEC3"
		},
		{
			"bufferView":10,
			"componentType":5126,
			"count":1984,
			"type":"VEC2"
		},
		{
			"bufferView":11,
			"componentType":5123,
			"count":2880,
			"type":"SCALAR"
		}
	],
	"bufferViews":[
		{
			"buffer":0,
			"byteLength":8976,
			"byteOffset":0,
			"target":34962
		},
		{
			"buffer":0,
			"byteLength":8976,
			"byteOffset":8976,
			"target":34962
		},
		{
			"buffer":0,
			"byteLength":5984,
			"byteOffset":17952,
			"target":34962
		},
		{
			"buffer":0,
			"byteLength":2880,
			"byteOffset":23936,
			"target":34963
		},
		{
			"buffer":0,
			"byteLength":28704,
			"byteOffset":26816,
			"target":34962
		},
		{
			"buffer":0,
			"byteLength":28704,
			"byteOffset":55520,
			"target":34962
		},
		{
			"buffer":0,
			"byteLength":19136,
			"byteOffset":84224,
			"target":34962
		},
		{
			"buffer":0,
			"byteLength":6984,
			"byteOffset":103360,
			"target":34963
		},
		{
			"buffer":0,
			"byteLength":23808,
			"byteOffset":110344,
			"target":34962
		},
		{
			"buffer":0,
			"byteLength":23808,
			"byteOffset":134152,
			"target":34962
		},
		{
			"buffer":0,
			"byteLength":15872,
			"byteOffset":157960,
			"target":34962
		},
		{
			"buffer":0,
			"byteLength":5760,
			"byteOffset":173832,
			"target":34963
		}
	],
	"buffers":[
		{
			"byteLength":179592,
			"uri":"ExoplanetWithBarrier-LowPoly.bin"
		}
	]
}
