{
	"asset":{
		"generator":"Khronos glTF Blender I/O v5.0.21",
		"version":"2.0"
	},
	"scene":0,
	"scenes":[
		{
			"name":"Scene",
			"nodes":[
				0,
				1,
				2,
				3,
				4,
				5
			]
		}
	],
	"nodes":[
		{
			"mesh":0,
			"name":"Cube",
			"scale":[
				4.967459201812744,
				4.967459201812744,
				4.967459201812744
			]
		},
		{
			"mesh":1,
			"name":"Cube.001",
			"scale":[
				4.967459201812744,
				4.967459201812744,
				4.967459201812744
			],
			"translation":[
				0,
				-0.9491555094718933,
				0
			]
		},
		{
			"mesh":2,
			"name":"Cylinder",
			"rotation":[
				0,
				0,
				-0.7071066498756409,
				0.70710688829422
			],
			"scale":[
				3.0922534465789795,
				1,
				1
			],
			"translation":[
				3.6365041732788086,
				-0.3802706301212311,
				0
			]
		},
		{
			"mesh":3,
			"name":"Cube.002",
			"scale":[
				0.10217326879501343,
				0.10217326879501343,
				0.10217326879501343
			],
			"translation":[
				4.757694721221924,
				0.8614641427993774,
				0.21508312225341797
			]
		},
		{
			"mesh":4,
			"name":"Cylinder.002",
			"rotation":[
				0,
				0,
				-0.7071068286895752,
				0.7071068286895752
			],
			"scale":[
				1,
				0.09230458736419678,
				1
			],
			"translation":[
				4.687882900238037,
				6.266859531402588,
				0
			]
		},
		{
			"mesh":5,
			"name":"Cylinder.001",
			"rotation":[
				0,
				0,
				-0.7071068286895752,
				0.7071068286895752
			],
			"scale":[
				1,
				0.09230458736419678,
				1
			],
			"translation":[
				4.687882900238037,
				6.266859531402588,
				0
			]
		}
	],
	"materials":[
		{
			"doubleSided":true,
			"name":"Material",
			"pbrMetallicRoughness":{
				"baseColorFactor":[
					0.8000156879425049,
					0.06049400568008423,
					0,
					1
				],
				"metallicFactor":0,
				"roughnessFactor":0.5
			}
		},
		{
			"doubleSided":true,
			"name":"Material.002",
			"pbrMetallicRoughness":{
				"baseColorFactor":[
					0.0701393410563469,
					0.03776974976062775,
					0.020436188206076622,
					1
				],
				"metallicFactor":0,
				"roughnessFactor":0.5
			}
		},
		{
			"doubleSided":true,
			"name":"Material.001",
			"pbrMetallicRoughness":{
				"baseColorFactor":[
					0.09265440702438354,
					0.053951118141412735,
					0.029316889122128487,
					1
				],
				"metallicFactor":0,
				"roughnessFactor":0.5
			}
		}
	],
	"meshes":[
		{
			"name":"Cube",
			"primitives":[
				{
					"attributes":{
						"POSITION":0,
						"NORMAL":1,
						"TEXCOORD_0":2
					},
					"indices":3
				}
			]
		},
		{
			"name":"Cube.001",
			"primitives":[
				{
					"attributes":{
						"POSITION":4,
						"NORMAL":5,
						"TEXCOORD_0":6
					},
					"indices":7,
					"material":0
				}
			]
		},
		{
			"name":"Cylinder",
			"primitives":[
				{
					"attributes":{
						"POSITION":8,
						"NORMAL":9,
						"TEXCOORD_0":10
					},
					"indices":11
				}
			]
		},
		{
			"name":"Cube.002",
			"primitives":[
				{
					"attributes":{
						"POSITION":12,
						"NORMAL":13,
						"TEXCOORD_0":14
					},
					"indices":15,
					"material":1
				}
			]
		},
		{
			"name":"Cylinder.002",
			"primitives":[
				{
					"attributes":{
						"POSITION":16,
						"NORMAL":17,
						"TEXCOORD_0":18
					},
					"indices":19,
					"material":2
				}
			]
		},
		{
			"name":"Cylinder.003",
			"primitives":[
				{
					"attributes":{
						"POSITION":20,
						"NORMAL":21,
						"TEXCOORD_0":22
					},
					"indices":23
				}
			]
		}
	],
	"accessors":[
		{
			"bufferView":0,
			"componentType":5126,
			"count":424,
			"max":[
				1,
				1.863133430480957,
				1
			],
			"min":[
				-1,
				-0.07834899425506592,
				-1
			],
			"type":"VEC3"
		},
		{
			"bufferView":1,
			"componentType":5126,
			"count":424,
			"type":"VEC3"
		},
		{
			"bufferView":2,
			"componentType":5126,
			"count":424,
			"type":"VEC2"
		},
		{
			"bufferView":3,
			"componentType":5123,
			"count":852,
			"type":"SCALAR"
		},
		{
			"bufferView":4,
			"componentType":5126,
			"count":40,
			"max":[
				1.3212604522705078,
				2.1263835430145264,
				1.2365614175796509
			],
			"min":[
				-1.3212604522705078,
				0.9100823998451233,
				-1.2365614175796509
			],
			"type":"VEC3"
		},
		{
			"bufferView":5,
			"componentType":5126,
			"count":40,
			"type":"VEC3"
		},
		{
			"bufferView":6,
			"componentType":5126,
			"count":40,
			"type":"VEC2"
		},
		{
			"bufferView":7,
			"componentType":5123,
			"count":60,
			"type":"SCALAR"
		},
		{
			"bufferView":8,
			"componentType":5126,
			"count":396,
			"max":[
				7.78292363889932e-09,
				1.1236048936843872,
				0.986810028553009
			],
			"min":[
				-1.0129029750823975,
				-1,
				-0.986810028553009
			],
			"type":"VEC3"
		},
		{
			"bufferView":9,
			"componentType":5126,
			"count":396,
			"type":"VEC3"
		},
		{
			"bufferView":10,
			"componentType":5126,
			"count":396,
			"type":"VEC2"
		},
		{
			"bufferView":11,
			"componentType":5123,
			"count":648,
			"type":"SCALAR"
		},
		{
			"bufferView":12,
			"componentType":5126,
			"count":24,
			"max":[
				1,
				1,
				1
			],
			"min":[
				-1,
				-1,
				-1
			],
			"type":"VEC3"
		},
		{
			"bufferView":13,
			"componentType":5126,
			"count":24,
			"type":"VEC3"
		},
		{
			"bufferView":14,
			"componentType":5126,
			"count":24,
			"type":"VEC2"
		},
		{
			"bufferView":15,
			"componentType":5123,
			"count":36,
			"type":"SCALAR"
		},
		{
			"bufferView":16,
			"componentType":5126,
			"count":353,
			"max":[
				0,
				1.9364347457885742,
				1
			],
			"min":[
				-1,
				-1.0000008344650269,
				-1
			],
			"type":"VEC3"
		},
		{
			"bufferView":17,
			"componentType":5126,
			"count":353,
			"type":"VEC3"
		},
		{
			"bufferView":18,
			"componentType":5126,
			"count":353,
			"type":"VEC2"
		},
		{
			"bufferView":19,
			"componentType":5123,
			"count":936,
			"type":"SCALAR"
		},
		{
			"bufferView":20,
			"componentType":5126,
			"count":34,
			"max":[
				0,
				1,
				0.8726843595504761
			],
			"min":[
				-0.8643001317977905,
				0.9999992847442627,
				-0.8726843595504761
			],
			"type":"VEC3"
		},
		{
			"bufferView":21,
			"componentType":5126,
			"count":34,
			"type":"VEC3"
		},
		{
			"bufferView":22,
			"componentType":5126,
			"count":34,
			"type":"VEC2"
		},
		{
			"bufferView":23,
			"componentType":5123,
			"count":90,
			"type":"SCALAR"
		}
	],
	"bufferViews":[
		{
			"buffer":0,
			"byteLength":5088,
			"byteOffset":0,
			"target":34962
		},
		{
			"buffer":0,
			"byteLength":5088,
			"byteOffset":5088,
			"target":34962
		},
		{
			"buffer":0,
			"byteLength":3392,
			"byteOffset":10176,
			"target":34962
		},
		{
			"buffer":0,
			"byteLength":1704,
			"byteOffset":13568,
			"target":34963
		},
		{
			"buffer":0,
			"byteLength":480,
			"byteOffset":15272,
			"target":34962
		},
		{
			"buffer":0,
			"byteLength":480,
			"byteOffset":15752,
			"target":34962
		},
		{
			"buffer":0,
			"byteLength":320,
			"byteOffset":16232,
			"target":34962
		},
		{
			"buffer":0,
			"byteLength":120,
			"byteOffset":16552,
			"target":34963
		},
		{
			"buffer":0,
			"byteLength":4752,
			"byteOffset":16672,
			"target":34962
		},
		{
			"buffer":0,
			"byteLength":4752,
			"byteOffset":21424,
			"target":34962
		},
		{
			"buffer":0,
			"byteLength":3168,
			"byteOffset":26176,
			"target":34962
		},
		{
			"buffer":0,
			"byteLength":1296,
			"byteOffset":29344,
			"target":34963
		},
		{
			"buffer":0,
			"byteLength":288,
			"byteOffset":30640,
			"target":34962
		},
		{
			"buffer":0,
			"byteLength":288,
			"byteOffset":30928,
			"target":34962
		},
		{
			"buffer":0,
			"byteLength":192,
			"byteOffset":31216,
			"target":34962
		},
		{
			"buffer":0,
			"byteLength":72,
			"byteOffset":31408,
			"target":34963
		},
		{
			"buffer":0,
			"byteLength":4236,
			"byteOffset":31480,
			"target":34962
		},
		{
			"buffer":0,
			"byteLength":4236,
			"byteOffset":35716,
			"target":34962
		},
		{
			"buffer":0,
			"byteLength":2824,
			"byteOffset":39952,
			"target":34962
		},
		{
			"buffer":0,
			"byteLength":1872,
			"byteOffset":42776,
			"target":34963
		},
		{
			"buffer":0,
			"byteLength":408,
			"byteOffset":44648,
			"target":34962
		},
		{
			"buffer":0,
			"byteLength":408,
			"byteOffset":45056,
			"target":34962
		},
		{
			"buffer":0,
			"byteLength":272,
			"byteOffset":45464,
			"target":34962
		},
		{
			"buffer":0,
			"byteLength":180,
			"byteOffset":45736,
			"target":34963
		}
	],
	"buffers":[
		{
			"byteLength":45916,
			"uri":"house.bin"
		}
	]
}
