{
	"asset":{
		"generator":"Khronos glTF Blender I/O v5.0.21",
		"version":"2.0"
	},
	"scene":0,
	"scenes":[
		{
			"name":"Scene",
			"nodes":[
				0,
				1,
				2,
				3,
				4
			]
		}
	],
	"nodes":[
		{
			"mesh":0,
			"name":"Cube.003",
			"scale":[
				0.3344595432281494,
				0.3344595432281494,
				0.3344595432281494
			],
			"translation":[
				1.486607313156128,
				0.7096470594406128,
				-1.789063811302185
			]
		},
		{
			"mesh":1,
			"name":"Cube.004",
			"scale":[
				0.3344595432281494,
				0.3344595432281494,
				0.3344595432281494
			],
			"translation":[
				-2.0036439895629883,
				0.7096470594406128,
				1.5353621244430542
			]
		},
		{
			"mesh":2,
			"name":"Cube.005",
			"scale":[
				0.3344595432281494,
				0.3344595432281494,
				0.3344595432281494
			],
			"translation":[
				-2.0036439895629883,
				0.7096470594406128,
				0.8009878396987915
			]
		},
		{
			"mesh":3,
			"name":"Cube.006",
			"rotation":[
				0,
				-0.3173106014728546,
				0,
				0.9483217597007751
			],
			"scale":[
				0.3344595432281494,
				0.3344595432281494,
				0.3344595432281494
			],
			"translation":[
				-1.5772331953048706,
				0.7096470594406128,
				0.04292404651641846
			]
		},
		{
			"mesh":4,
			"name":"Cube.007",
			"scale":[
				0.3344595432281494,
				0.3344595432281494,
				0.3344595432281494
			],
			"translation":[
				-2.0036439895629883,
				1.3989150524139404,
				1.1589502096176147
			]
		}
	],
	"materials":[
		{
			"doubleSided":true,
			"name":"Material.007",
			"pbrMetallicRoughness":{
				"baseColorTexture":{
					"index":0
				},
				"metallicFactor":0,
				"roughnessFactor":0.5
			}
		}
	],
	"meshes":[
		{
			"name":"Cube.003",
			"primitives":[
				{
					"attributes":{
						"POSITION":0,
						"NORMAL":1,
						"TEXCOORD_0":2
					},
					"indices":3,
					"material":0
				}
			]
		},
		{
			"name":"Cube.004",
			"primitives":[
				{
					"attributes":{
						"POSITION":4,
						"NORMAL":5,
						"TEXCOORD_0":6
					},
					"indices":3,
					"material":0
				}
			]
		},
		{
			"name":"Cube.005",
			"primitives":[
				{
					"attributes":{
						"POSITION":7,
						"NORMAL":8,
						"TEXCOORD_0":9
					},
					"indices":3,
					"material":0
				}
			]
		},
		{
			"name":"Cube.006",
			"primitives":[
				{
					"attributes":{
						"POSITION":10,
						"NORMAL":11,
						"TEXCOORD_0":12
					},
					"indices":3,
					"material":0
				}
			]
		},
		{
			"name":"Cube.007",
			"primitives":[
				{
					"attributes":{
						"POSITION":13,
						"NORMAL":14,
						"TEXCOORD_0":15
					},
					"indices":3,
					"material":0
				}
			]
		}
	],
	"textures":[
		{
			"sampler":0,
			"source":0
		}
	],
	"images":[
		{
			"mimeType":"image/png",
			"name":"color palette 1",
			"uri":"color%20palette%201.png"
		}
	],
	"accessors":[
		{
			"bufferView":0,
			"componentType":5126,
			"count":524,
			"max":[
				1.0253958702087402,
				1.0253958702087402,
				1.0253958702087402
			],
			"min":[
				-1.0253958702087402,
				-1.0253958702087402,
				-1.0253958702087402
			],
			"type":"VEC3"
		},
		{
			"bufferView":1,
			"componentType":5126,
			"count":524,
			"type":"VEC3"
		},
		{
			"bufferView":2,
			"componentType":5126,
			"count":524,
			"type":"VEC2"
		},
		{
			"bufferView":3,
			"componentType":5123,
			"count":984,
			"type":"SCALAR"
		},
		{
			"bufferView":4,
			"componentType":5126,
			"count":524,
			"max":[
				1.0253958702087402,
				1.0253958702087402,
				1.0253958702087402
			],
			"min":[
				-1.0253958702087402,
				-1.0253958702087402,
				-1.0253958702087402
			],
			"type":"VEC3"
		},
		{
			"bufferView":5,
			"componentType":5126,
			"count":524,
			"type":"VEC3"
		},
		{
			"bufferView":6,
			"componentType":5126,
			"count":524,
			"type":"VEC2"
		},
		{
			"bufferView":7,
			"componentType":5126,
			"count":524,
			"max":[
				1.0253958702087402,
				1.0253958702087402,
				1.0253958702087402
			],
			"min":[
				-1.0253958702087402,
				-1.0253958702087402,
				-1.0253958702087402
			],
			"type":"VEC3"
		},
		{
			"bufferView":8,
			"componentType":5126,
			"count":524,
			"type":"VEC3"
		},
		{
			"bufferView":9,
			"componentType":5126,
			"count":524,
			"type":"VEC2"
		},
		{
			"bufferView":10,
			"componentType":5126,
			"count":524,
			"max":[
				1.0253958702087402,
				1.0253958702087402,
				1.0253958702087402
			],
			"min":[
				-1.0253958702087402,
				-1.0253958702087402,
				-1.0253958702087402
			],
			"type":"VEC3"
		},
		{
			"bufferView":11,
			"componentType":5126,
			"count":524,
			"type":"VEC3"
		},
		{
			"bufferView":12,
			"componentType":5126,
			"count":524,
			"type":"VEC2"
		},
		{
			"bufferView":13,
			"componentType":5126,
			"count":524,
			"max":[
				1.0253958702087402,
				1.0253958702087402,
				1.0253958702087402
			],
			"min":[
				-1.0253958702087402,
				-1.0253958702087402,
				-1.0253958702087402
			],
			"type":"VEC3"
		},
		{
			"bufferView":14,
			"componentType":5126,
			"count":524,
			"type":"VEC3"
		},
		{
			"bufferView":15,
			"componentType":5126,
			"count":524,
			"type":"VEC2"
		}
	],
	"bufferViews":[
		{
			"buffer":0,
			"byteLength":6288,
			"byteOffset":0,
			"target":34962
		},
		{
			"buffer":0,
			"byteLength":6288,
			"byteOffset":6288,
			"target":34962
		},
		{
			"buffer":0,
			"byteLength":4192,
			"byteOffset":12576,
			"target":34962
		},
		{
			"buffer":0,
			"byteLength":1968,
			"byteOffset":16768,
			"target":34963
		},
		{
			"buffer":0,
			"byteLength":6288,
			"byteOffset":18736,
			"target":34962
		},
		{
			"buffer":0,
			"byteLength":6288,
			"byteOffset":25024,
			"target":34962
		},
		{
			"buffer":0,
			"byteLength":4192,
			"byteOffset":31312,
			"target":34962
		},
		{
			"buffer":0,
			"byteLength":6288,
			"byteOffset":35504,
			"target":34962
		},
		{
			"buffer":0,
			"byteLength":6288,
			"byteOffset":41792,
			"target":34962
		},
		{
			"buffer":0,
			"byteLength":4192,
			"byteOffset":48080,
			"target":34962
		},
		{
			"buffer":0,
			"byteLength":6288,
			"byteOffset":52272,
			"target":34962
		},
		{
			"buffer":0,
			"byteLength":6288,
			"byteOffset":58560,
			"target":34962
		},
		{
			"buffer":0,
			"byteLength":4192,
			"byteOffset":64848,
			"target":34962
		},
		{
			"buffer":0,
			"byteLength":6288,
			"byteOffset":69040,
			"target":34962
		},
		{
			"buffer":0,
			"byteLength":6288,
			"byteOffset":75328,
			"target":34962
		},
		{
			"buffer":0,
			"byteLength":4192,
			"byteOffset":81616,
			"target":34962
		}
	],
	"samplers":[
		{
			"magFilter":9729,
			"minFilter":9987
		}
	],
	"buffers":[
		{
			"byteLength":85808,
			"uri":"Dungeon%20Isometric.bin"
		}
	]
}
